<svg width="510" height="115" viewBox="0 0 510 115" fill="none" xmlns="http://www.w3.org/2000/svg">
<g filter="url(#filter0_i_4_34)">
<path d="M3.33257 51.4934C1.06235 51.4934 0 49.6273 0 47.8924C0 46.2887 0.931374 44.5538 2.9251 44.5538C9.85219 44.2913 17.1722 44.0143 24.6378 43.6207C31.0264 32.1469 38.8849 13.8647 42.4794 2.39097C43.0178 0.670639 44.4731 0 45.9429 0C48.0676 0 50.4688 1.47249 50.4688 3.73225C50.4688 6.40023 40.3547 28.6771 32.3652 43.0813C50.4688 41.8858 69.1254 40.0196 85.1043 37.6141C80.5784 33.3424 75.776 29.6102 70.7262 26.2716C69.7948 25.6009 69.2564 24.7991 69.2564 23.9972C69.2564 22.2623 70.9882 20.6586 73.1129 20.6586C77.7697 20.6586 104.547 43.8685 104.547 50.9394C104.547 53.345 102.422 55.2111 100.414 55.2111C99.2204 55.2111 98.1435 54.5404 97.3577 53.2137C95.233 49.4815 92.7008 45.8805 90.0377 42.8043C60.321 48.8254 9.72122 51.4934 3.33257 51.4934ZM76.8383 111.268C67.7866 111.661 59.1277 111.938 50.5998 111.938C42.7413 111.938 35.1594 111.676 27.6938 111.268C19.8354 110.728 15.4404 105.669 15.1785 99.1234C15.0475 95.5223 14.9165 92.0525 14.9165 88.5827C14.9165 85.244 15.0475 81.7742 15.1785 78.5814C15.4404 72.5748 19.5734 66.714 27.4319 66.437C35.4213 66.1746 43.8182 66.0434 52.3316 66.0434C60.8449 66.0434 69.5038 66.1746 77.4932 66.437C84.4203 66.6994 88.6843 71.7729 89.0772 77.5025C89.3391 80.8412 89.3391 84.4422 89.3391 88.0432C89.3391 91.6443 89.3391 95.2453 89.0772 98.8464C88.8298 105.261 84.2893 110.86 76.8383 111.268ZM82.2956 87.256C82.2956 76.7153 81.9027 72.8518 73.7677 72.4436C66.5787 72.1812 59.2587 72.0499 51.9241 72.0499C44.7351 72.0499 37.546 72.1812 30.357 72.4436C24.7687 72.5748 22.2366 76.3071 22.1056 80.3163C21.9746 82.5906 21.9746 85.6523 21.9746 88.7284C21.9746 101.004 22.1056 104.474 30.5025 104.868C37.9535 105.261 44.7496 105.407 51.8077 105.407C58.8657 105.407 66.1858 105.276 74.1752 104.868C79.1086 104.605 82.0337 102.068 82.1646 97.126C82.2956 94.458 82.2956 90.857 82.2956 87.256Z" fill="white"/>
</g>
<g filter="url(#filter1_i_4_34)">
<path d="M142.209 50.8228C137.552 47.353 132.357 44.9474 127.962 43.6207C126.623 43.2271 126.099 42.1482 126.099 41.2151C126.099 39.4802 127.438 37.7453 129.694 37.7453C132.488 37.7453 141.278 41.3464 146.08 44.5538C147.419 45.4868 147.943 46.6823 147.943 47.7612C147.943 49.7585 146.342 51.6246 144.479 51.6246C143.679 51.6246 143.01 51.3622 142.209 50.8228ZM130.363 111.924C128.37 111.924 126.638 110.189 126.638 108.192C126.638 107.521 126.9 106.719 127.569 105.917C134.627 97.5051 141.278 85.244 145.149 73.3621C145.687 71.8896 147.012 71.0877 148.205 71.0877C149.937 71.0877 151.668 72.2832 151.668 74.5576C151.668 77.3568 143.81 96.8344 133.958 109.781C132.895 111.268 131.557 111.924 130.363 111.924ZM143.417 21.8832C138.891 16.2849 135.02 13.6169 131.426 11.3426C130.494 10.8031 130.087 10.0013 130.087 9.34521C130.087 7.74151 131.949 6.13781 133.812 6.13781C137.014 6.13781 149.922 15.6142 149.922 19.4777C149.922 21.6062 148.059 23.3412 146.197 23.3412C145.28 23.3412 144.217 22.8163 143.417 21.8832ZM154.201 58.8267C152.862 58.8267 151.668 58.0249 151.668 56.6982C151.668 56.3045 151.799 55.8963 152.061 55.3569C154.463 51.6246 156.849 44.9474 157.257 40.4133C157.388 39.2178 158.45 38.6784 159.527 38.6784C160.866 38.6784 162.321 39.4802 162.321 40.9527C162.321 44.0143 159.119 53.899 156.602 57.6312C156.063 58.4331 155.132 58.8267 154.201 58.8267ZM166.047 34.2901C161.259 34.8295 153.793 35.4856 153.662 35.4856C152.469 35.4856 151.799 34.2901 151.799 33.2112C151.799 31.2139 152.061 31.0827 159.25 30.6745C160.851 28.9395 162.452 27.0734 164.038 25.0761C161.113 21.7375 156.18 17.0721 154.055 15.4684C153.517 15.0748 153.255 14.5354 153.255 13.996C153.255 12.9317 154.317 11.8674 155.656 11.8674C156.718 11.8674 157.926 12.8005 159.381 13.996C161.783 10.1325 164.169 4.92774 165.246 1.45792C165.508 0.524853 166.308 0.116638 167.24 0.116638C168.71 0.116638 170.31 1.18091 170.31 2.52219C170.31 4.12589 166.047 12.1298 162.714 17.0576C164.184 18.5301 165.508 19.988 166.716 21.3292C169.641 17.0576 172.304 12.6547 173.774 9.46185C174.167 8.66 174.967 8.26636 175.768 8.26636C177.238 8.26636 178.838 9.33064 178.838 10.6719C178.838 11.3426 173.774 20.1483 165.261 30.2808L176.452 29.2165C175.651 28.0211 174.851 26.811 174.051 25.8779C173.658 25.4843 173.512 24.9449 173.512 24.5366C173.512 23.6036 174.574 22.8017 175.782 22.8017C178.183 22.8017 184.034 32.2782 184.034 34.8149C184.034 36.4186 182.695 37.3517 181.501 37.3517C180.57 37.3517 179.77 36.958 179.508 35.748C179.246 34.6837 178.838 33.7506 178.445 32.8176L170.994 33.6194L171.125 60.5616C171.125 62.1653 169.787 62.9672 168.462 62.9672C166.992 62.9672 165.668 62.1653 165.668 60.5616L166.047 34.2901ZM163.383 71.2335C161.783 71.2335 160.851 70.038 160.851 68.6968C160.851 67.3555 161.783 66.0288 163.645 66.0288C184.15 66.0288 205.324 66.0288 222.104 66.16C233.164 66.16 233.819 70.0235 233.819 75.097C233.819 79.2375 233.819 84.034 221.973 84.034H172.974C169.51 84.034 167.778 84.2964 167.109 85.7689C166.439 87.1102 165.77 90.1718 165.77 90.303C165.77 91.6443 167.502 91.9067 170.165 91.9067H226.091C234.211 91.9067 236.074 95.5078 236.074 98.8464C236.074 103.118 233.149 106.982 231.941 108.323C227.808 112.988 217.025 115 204.247 115C197.189 115 189.331 114.461 181.88 113.265C180.148 113.003 179.348 111.793 179.348 110.466C179.348 108.993 180.41 107.536 182.273 107.536H182.942C190.131 108.877 197.99 109.533 205.048 109.533C214.231 109.533 221.958 108.337 225.16 105.669C225.96 104.999 229.162 101.937 229.162 98.8609C229.162 97.126 227.43 96.7324 224.097 96.7324C205.717 96.7324 184.95 96.8636 167.895 96.8636C160.837 96.8636 158.843 94.7351 158.843 92.1983C158.843 92.0671 159.512 87.4018 160.837 84.1944C162.03 80.987 164.431 79.252 170.951 79.252H220.488C225.945 79.252 226.746 78.0565 226.746 75.3886C226.746 71.7875 225.276 71.2481 220.488 71.2481H163.383V71.2335ZM179.639 55.8963C178.445 55.8963 177.369 55.2257 177.369 53.7678C177.238 50.2979 175.098 43.4895 173.905 40.9673C173.774 40.5737 173.643 40.2967 173.643 40.0342C173.643 38.97 174.705 38.2993 175.768 38.2993C179.493 38.2993 182.433 51.0998 182.433 53.2429C182.433 54.9632 180.963 55.8963 179.639 55.8963ZM184.965 17.6116C183.233 17.6116 182.433 16.5473 182.433 15.3372C182.433 14.1272 183.364 12.9317 184.965 12.9317H209.996C211.727 12.9317 212.528 14.1272 212.528 15.206C212.528 16.4015 211.727 17.6116 209.996 17.6116H184.965ZM197.48 59.4973C187.89 59.4973 185.358 59.1037 185.358 49.7585C185.358 42.017 186.289 40.1509 196.68 40.1509C208.802 40.1509 209.734 40.9527 209.734 49.6273C209.734 58.0394 208.657 59.4973 197.48 59.4973ZM188.56 7.87272C186.828 7.87272 186.027 6.67724 186.027 5.59838C186.027 4.4029 186.828 3.19283 188.56 3.19283H206.809C208.409 3.19283 209.21 4.38832 209.21 5.46717C209.21 6.66266 208.409 7.87272 206.809 7.87272H188.56ZM189.083 26.6798C187.483 26.6798 186.682 25.6155 186.682 24.5512C186.682 23.4869 187.483 22.4227 189.083 22.4227H205.994C207.595 22.4227 208.395 23.4869 208.395 24.5512C208.395 25.6155 207.595 26.6798 205.994 26.6798H189.083ZM189.083 35.748C187.483 35.748 186.682 34.6837 186.682 33.6194C186.682 32.4239 187.483 31.3451 189.083 31.3451H205.994C207.595 31.3451 208.395 32.4094 208.395 33.4736C208.395 34.6691 207.595 35.748 205.994 35.748H189.083ZM204.538 47.3675C204.538 44.5683 202.414 44.1601 197.611 44.1601C190.553 44.1601 190.422 45.2244 190.422 49.8897C190.422 55.2257 191.092 55.3569 197.48 55.3569C201.482 55.3569 204.538 55.0945 204.538 52.2953V47.3675ZM226.237 34.2901C223.835 34.5525 214.653 35.4856 213.721 35.4856C212.528 35.4856 211.858 34.2901 211.858 33.2112C211.858 32.1469 212.397 31.0827 213.459 31.0827L219.455 30.689C221.056 29.0853 222.657 27.088 224.243 25.0907C221.318 21.6208 216.253 17.0867 214.129 15.483C213.59 15.0894 213.328 14.55 213.328 14.0105C213.328 12.9463 214.391 11.882 215.729 11.882C216.268 11.882 216.661 11.882 219.586 14.0105C221.987 10.1471 224.374 4.94232 225.451 1.4725C225.713 0.539432 226.513 0.131217 227.444 0.131217C228.914 0.131217 230.646 1.19549 230.646 2.53677C230.646 4.94232 225.189 13.7481 222.919 17.0721L227.052 21.3438C230.108 17.0721 232.64 12.6693 234.11 9.47643C234.517 8.67457 235.303 8.28094 236.103 8.28094C237.573 8.28094 239.159 9.34521 239.159 10.6865C239.159 12.5526 231.708 23.0933 225.582 30.1642C229.584 29.7705 233.833 29.4935 237.035 29.2311C236.234 28.0356 235.172 26.9568 234.372 26.0237C233.979 25.6301 233.833 25.2219 233.833 24.8282C233.833 23.6327 235.026 22.8309 236.365 22.8309C238.49 22.8309 244.893 32.1761 244.893 34.6983C244.893 36.302 243.554 37.3663 242.361 37.3663C241.43 37.3663 240.76 36.8268 240.367 35.7626C240.105 34.6983 239.698 33.634 239.174 32.7009L231.184 33.634L231.315 60.5762C231.315 62.1799 229.977 62.9818 228.652 62.9818C227.182 62.9818 225.858 62.1799 225.858 60.5762L226.237 34.2901ZM214.784 59.3661C213.59 59.3661 212.382 58.5643 212.382 57.3688C212.382 56.9752 212.382 56.5669 212.644 56.1733C214.638 52.4411 216.501 45.7638 216.501 41.2297V40.8215C216.501 39.4802 217.694 38.8242 218.902 38.8242C220.241 38.8242 221.565 39.626 221.565 41.0985C221.565 45.1078 219.44 54.176 217.432 57.9082C216.923 58.9725 215.86 59.3661 214.784 59.3661ZM239.552 54.4238C239.014 50.8228 236.089 43.7519 234.488 41.2151C234.226 40.8215 234.08 40.4133 234.08 40.1509C234.08 39.0866 235.274 38.416 236.482 38.416C240.484 38.416 244.602 52.5577 244.602 53.4908C244.602 55.2257 243.132 56.4212 241.677 56.4212C240.76 56.4357 239.829 55.7651 239.552 54.4238Z" fill="white"/>
</g>
<g filter="url(#filter2_i_4_34)">
<path d="M272.834 79.6457C272.165 81.5118 270.564 82.4449 268.978 82.4449C267.246 82.4449 265.776 81.3806 265.776 79.5145C265.776 78.975 265.776 78.4502 266.038 77.9108C270.826 64.5709 274.421 49.4961 276.953 34.8149L264.699 35.0773H264.568C262.575 35.0773 261.643 33.6048 261.643 32.1469C261.643 30.5432 262.706 28.9395 264.568 28.9395L277.884 28.8083C279.223 20.0025 280.285 11.4592 280.809 3.60104C280.94 1.47249 282.541 0.539429 284.142 0.539429C286.005 0.539429 287.867 1.73492 287.867 3.74683C287.867 4.14047 286.805 15.0894 284.666 28.8229C288.26 28.8229 291.855 28.6917 295.056 28.6917C302.245 28.6917 306.116 32.9634 306.116 39.1012C306.116 50.3125 303.322 65.2561 297.458 78.319C299.189 79.1208 311.836 85.3898 311.836 90.1864C311.836 92.3149 310.235 94.1956 308.372 94.1956C307.441 94.1956 306.64 93.9332 305.709 93.0001C302.376 89.6615 298.651 86.7311 294.518 84.3256C283.603 104.474 267.61 112.478 264.947 112.478C262.677 112.478 261.221 110.48 261.221 108.614C261.221 107.55 261.76 106.486 262.953 105.946C275.206 100.61 283.327 91.5422 288.784 81.5264C284.127 79.529 279.063 77.9253 273.606 77.1235L272.834 79.6457ZM299.204 40.1509C299.204 36.8123 297.472 34.5525 293.485 34.5525C290.822 34.5525 287.489 34.5525 283.763 34.6837C281.639 47.0905 278.699 59.7598 275.236 71.5105C280.693 72.1812 286.281 73.7849 291.607 75.7822C297.749 61.9029 299.204 47.63 299.204 40.1509ZM353.005 61.7717C353.398 65.1103 353.675 68.4489 353.675 72.05C353.675 78.7272 352.874 85.6523 351.404 92.8543C349.28 103.526 342.076 112.463 328.368 112.463C325.035 112.463 321.309 111.924 317.176 110.728C315.183 110.189 314.251 108.6 314.251 106.996C314.251 105.13 315.445 103.395 317.453 103.395C317.715 103.395 318.122 103.395 318.515 103.526C322.372 104.868 325.835 105.392 328.775 105.392C338.103 105.392 342.891 99.3858 344.623 91.1194C346.093 84.311 346.748 77.5171 346.748 71.1023C346.748 67.8949 346.617 64.7021 346.209 61.7571L311.85 61.8883C309.725 61.8883 308.649 60.2846 308.649 58.6809C308.649 57.0772 309.711 55.4735 311.705 55.4735L345.132 55.6047C343.008 46.7989 338.744 39.5969 331.816 35.8646C330.885 35.3252 330.478 34.6691 330.478 33.8673C330.478 32.3948 332.078 30.6599 334.072 30.6599C336.197 30.6599 338.729 32.6572 340.068 33.7215C341.13 32.9196 355.523 20.5128 355.523 17.043C355.523 15.0456 352.598 15.0456 347.926 15.0456C340.606 15.0456 327.815 15.1769 317.424 15.4393H317.293C315.299 15.4393 314.237 13.9668 314.237 12.3777C314.237 10.7885 315.299 9.17026 317.438 9.17026C324.366 8.90784 331.016 8.90784 337.274 8.90784C343.531 8.90784 349.396 8.90784 354.592 9.03905C360.718 9.17026 363.512 12.2465 363.512 15.9787C363.512 18.1073 363.512 22.5101 344.332 38.1244C347.926 42.6585 350.59 48.6651 352.059 55.6047L373.772 55.4735C375.897 55.4735 376.828 57.0772 376.828 58.5351C376.828 60.1388 375.897 61.7425 373.772 61.7425H353.005V61.7717Z" fill="white"/>
</g>
<g filter="url(#filter3_i_4_34)">
<path d="M405.992 79.6457C405.322 81.5118 403.721 82.4449 402.135 82.4449C400.403 82.4449 398.934 81.3806 398.934 79.5145C398.934 78.975 398.934 78.4502 399.196 77.9108C403.983 64.5709 407.578 49.4961 410.11 34.8149L397.857 35.0773H397.726C395.732 35.0773 394.801 33.6048 394.801 32.1469C394.801 30.5432 395.863 28.9395 397.726 28.9395L411.042 28.8083C412.38 20.0025 413.443 11.4592 413.967 3.60104C414.098 1.47249 415.698 0.539429 417.299 0.539429C419.162 0.539429 421.025 1.73492 421.025 3.74683C421.025 4.14047 419.962 15.0894 417.823 28.8229C421.418 28.8229 425.012 28.6917 428.214 28.6917C435.403 28.6917 439.274 32.9634 439.274 39.1012C439.274 50.3125 436.48 65.2561 430.615 78.319C432.347 79.1208 444.993 85.3898 444.993 90.1864C444.993 92.3149 443.392 94.1956 441.529 94.1956C440.598 94.1956 439.798 93.9332 438.866 93.0001C435.534 89.6615 431.808 86.7311 427.675 84.3256C416.761 104.474 400.767 112.478 398.104 112.478C395.834 112.478 394.379 110.48 394.379 108.614C394.379 107.55 394.917 106.486 396.11 105.946C408.364 100.61 416.484 91.5422 421.942 81.5264C417.285 79.529 412.22 77.9253 406.763 77.1235L405.992 79.6457ZM432.361 40.1509C432.361 36.8123 430.629 34.5525 426.642 34.5525C423.979 34.5525 420.646 34.5525 416.921 34.6837C414.796 47.0905 411.856 59.7598 408.393 71.5105C413.85 72.1812 419.438 73.7849 424.765 75.7822C430.906 61.9029 432.361 47.63 432.361 40.1509ZM486.163 61.7717C486.556 65.1103 486.832 68.4489 486.832 72.05C486.832 78.7272 486.032 85.6523 484.562 92.8543C482.437 103.526 475.234 112.463 461.525 112.463C458.192 112.463 454.467 111.924 450.334 110.728C448.34 110.189 447.409 108.6 447.409 106.996C447.409 105.13 448.602 103.395 450.61 103.395C450.872 103.395 451.28 103.395 451.673 103.526C455.529 104.868 458.993 105.392 461.932 105.392C471.261 105.392 476.049 99.3858 477.78 91.1194C479.25 84.311 479.905 77.5171 479.905 71.1023C479.905 67.8949 479.774 64.7021 479.367 61.7571L445.008 61.8883C442.883 61.8883 441.806 60.2846 441.806 58.6809C441.806 57.0772 442.868 55.4735 444.862 55.4735L478.29 55.6047C476.165 46.7989 471.901 39.5969 464.974 35.8646C464.043 35.3252 463.635 34.6691 463.635 33.8673C463.635 32.3948 465.236 30.6599 467.23 30.6599C469.354 30.6599 471.886 32.6572 473.225 33.7215C474.288 32.9196 488.68 20.5128 488.68 17.043C488.68 15.0456 485.755 15.0456 481.084 15.0456C473.764 15.0456 460.972 15.1769 450.581 15.4393H450.45C448.457 15.4393 447.394 13.9668 447.394 12.3777C447.394 10.7885 448.457 9.17026 450.596 9.17026C457.523 8.90784 464.174 8.90784 470.431 8.90784C476.689 8.90784 482.554 8.90784 487.749 9.03905C493.876 9.17026 496.67 12.2465 496.67 15.9787C496.67 18.1073 496.67 22.5101 477.489 38.1244C481.084 42.6585 483.747 48.6651 485.217 55.6047L506.929 55.4735C509.054 55.4735 509.985 57.0772 509.985 58.5351C509.985 60.1388 509.054 61.7425 506.929 61.7425H486.163V61.7717Z" fill="white"/>
</g>
<defs>
<filter id="filter0_i_4_34" x="0" y="-2" width="104.547" height="113.938" filterUnits="userSpaceOnUse" color-interpolation-filters="sRGB">
<feFlood flood-opacity="0" result="BackgroundImageFix"/>
<feBlend mode="normal" in="SourceGraphic" in2="BackgroundImageFix" result="shape"/>
<feColorMatrix in="SourceAlpha" type="matrix" values="0 0 0 0 0 0 0 0 0 0 0 0 0 0 0 0 0 0 127 0" result="hardAlpha"/>
<feOffset dy="-2"/>
<feGaussianBlur stdDeviation="1.5"/>
<feComposite in2="hardAlpha" operator="arithmetic" k2="-1" k3="1"/>
<feColorMatrix type="matrix" values="0 0 0 0 0 0 0 0 0 0 0 0 0 0 0 0 0 0 0.25 0"/>
<feBlend mode="normal" in2="shape" result="effect1_innerShadow_4_34"/>
</filter>
<filter id="filter1_i_4_34" x="126.099" y="-1.88336" width="118.794" height="116.883" filterUnits="userSpaceOnUse" color-interpolation-filters="sRGB">
<feFlood flood-opacity="0" result="BackgroundImageFix"/>
<feBlend mode="normal" in="SourceGraphic" in2="BackgroundImageFix" result="shape"/>
<feColorMatrix in="SourceAlpha" type="matrix" values="0 0 0 0 0 0 0 0 0 0 0 0 0 0 0 0 0 0 127 0" result="hardAlpha"/>
<feOffset dy="-2"/>
<feGaussianBlur stdDeviation="1.5"/>
<feComposite in2="hardAlpha" operator="arithmetic" k2="-1" k3="1"/>
<feColorMatrix type="matrix" values="0 0 0 0 0 0 0 0 0 0 0 0 0 0 0 0 0 0 0.25 0"/>
<feBlend mode="normal" in2="shape" result="effect1_innerShadow_4_34"/>
</filter>
<filter id="filter2_i_4_34" x="261.221" y="-1.46057" width="115.607" height="113.938" filterUnits="userSpaceOnUse" color-interpolation-filters="sRGB">
<feFlood flood-opacity="0" result="BackgroundImageFix"/>
<feBlend mode="normal" in="SourceGraphic" in2="BackgroundImageFix" result="shape"/>
<feColorMatrix in="SourceAlpha" type="matrix" values="0 0 0 0 0 0 0 0 0 0 0 0 0 0 0 0 0 0 127 0" result="hardAlpha"/>
<feOffset dy="-2"/>
<feGaussianBlur stdDeviation="1.5"/>
<feComposite in2="hardAlpha" operator="arithmetic" k2="-1" k3="1"/>
<feColorMatrix type="matrix" values="0 0 0 0 0 0 0 0 0 0 0 0 0 0 0 0 0 0 0.25 0"/>
<feBlend mode="normal" in2="shape" result="effect1_innerShadow_4_34"/>
</filter>
<filter id="filter3_i_4_34" x="394.379" y="-1.46057" width="115.607" height="113.938" filterUnits="userSpaceOnUse" color-interpolation-filters="sRGB">
<feFlood flood-opacity="0" result="BackgroundImageFix"/>
<feBlend mode="normal" in="SourceGraphic" in2="BackgroundImageFix" result="shape"/>
<feColorMatrix in="SourceAlpha" type="matrix" values="0 0 0 0 0 0 0 0 0 0 0 0 0 0 0 0 0 0 127 0" result="hardAlpha"/>
<feOffset dy="-2"/>
<feGaussianBlur stdDeviation="1.5"/>
<feComposite in2="hardAlpha" operator="arithmetic" k2="-1" k3="1"/>
<feColorMatrix type="matrix" values="0 0 0 0 0 0 0 0 0 0 0 0 0 0 0 0 0 0 0.25 0"/>
<feBlend mode="normal" in2="shape" result="effect1_innerShadow_4_34"/>
</filter>
</defs>
</svg>
