<svg width="460" height="199" viewBox="0 0 460 199" fill="none" xmlns="http://www.w3.org/2000/svg">
<g filter="url(#filter0_di_69_3907)">
<path d="M7.16238 146.04L0.538375 128.472L91.8344 5.20799C102.586 2.71199 110.842 1.46399 116.602 1.46399L119.77 4.344V129.336L149.146 129.912L146.554 146.328H119.77V194.136C113.626 195.288 106.042 195.864 97.0184 195.864L93.8504 192.984V146.328H7.45038L7.16238 146.04ZM20.9864 125.88L22.1384 127.896L93.8504 129.048V38.904C93.8504 34.872 94.0424 31.992 94.4264 30.264L92.6984 29.4L26.1704 119.544C24.6344 121.848 22.9064 123.96 20.9864 125.88ZM296.654 79.512C296.654 104.28 290.51 124.152 278.222 139.128C266.126 154.104 249.326 161.592 227.822 161.592C206.51 161.592 190.094 154.68 178.574 140.856C167.054 126.84 161.294 107.448 161.294 82.68C161.294 57.72 167.342 37.752 179.438 22.776C191.726 7.60799 208.526 0.0239868 229.838 0.0239868C251.342 0.0239868 267.854 7.03199 279.374 21.048C290.894 35.064 296.654 54.552 296.654 79.512ZM231.854 146.328C242.99 146.328 251.246 142.968 256.622 136.248C260.078 131.832 262.958 124.728 265.262 114.936C267.566 105.144 268.718 94.488 268.718 82.968C268.718 63.192 265.07 46.968 257.774 34.296C250.67 21.624 240.11 15.288 226.094 15.288C214.958 15.288 206.702 18.648 201.326 25.368C197.87 29.784 194.99 36.888 192.686 46.68C190.382 56.472 189.23 67.128 189.23 78.648C189.23 98.424 192.782 114.648 199.886 127.32C207.182 139.992 217.838 146.328 231.854 146.328ZM314.85 146.04L308.226 128.472L399.522 5.20799C410.274 2.71199 418.53 1.46399 424.29 1.46399L427.458 4.344V129.336L456.834 129.912L454.242 146.328H427.458V194.136C421.314 195.288 413.73 195.864 404.706 195.864L401.538 192.984V146.328H315.138L314.85 146.04ZM328.674 125.88L329.826 127.896L401.538 129.048V38.904C401.538 34.872 401.73 31.992 402.114 30.264L400.386 29.4L333.858 119.544C332.322 121.848 330.594 123.96 328.674 125.88Z" fill="white"/>
<path d="M7.16238 146.04L0.538375 128.472L91.8344 5.20799C102.586 2.71199 110.842 1.46399 116.602 1.46399L119.77 4.344V129.336L149.146 129.912L146.554 146.328H119.77V194.136C113.626 195.288 106.042 195.864 97.0184 195.864L93.8504 192.984V146.328H7.45038L7.16238 146.04ZM20.9864 125.88L22.1384 127.896L93.8504 129.048V38.904C93.8504 34.872 94.0424 31.992 94.4264 30.264L92.6984 29.4L26.1704 119.544C24.6344 121.848 22.9064 123.96 20.9864 125.88ZM296.654 79.512C296.654 104.28 290.51 124.152 278.222 139.128C266.126 154.104 249.326 161.592 227.822 161.592C206.51 161.592 190.094 154.68 178.574 140.856C167.054 126.84 161.294 107.448 161.294 82.68C161.294 57.72 167.342 37.752 179.438 22.776C191.726 7.60799 208.526 0.0239868 229.838 0.0239868C251.342 0.0239868 267.854 7.03199 279.374 21.048C290.894 35.064 296.654 54.552 296.654 79.512ZM231.854 146.328C242.99 146.328 251.246 142.968 256.622 136.248C260.078 131.832 262.958 124.728 265.262 114.936C267.566 105.144 268.718 94.488 268.718 82.968C268.718 63.192 265.07 46.968 257.774 34.296C250.67 21.624 240.11 15.288 226.094 15.288C214.958 15.288 206.702 18.648 201.326 25.368C197.87 29.784 194.99 36.888 192.686 46.68C190.382 56.472 189.23 67.128 189.23 78.648C189.23 98.424 192.782 114.648 199.886 127.32C207.182 139.992 217.838 146.328 231.854 146.328ZM314.85 146.04L308.226 128.472L399.522 5.20799C410.274 2.71199 418.53 1.46399 424.29 1.46399L427.458 4.344V129.336L456.834 129.912L454.242 146.328H427.458V194.136C421.314 195.288 413.73 195.864 404.706 195.864L401.538 192.984V146.328H315.138L314.85 146.04ZM328.674 125.88L329.826 127.896L401.538 129.048V38.904C401.538 34.872 401.73 31.992 402.114 30.264L400.386 29.4L333.858 119.544C332.322 121.848 330.594 123.96 328.674 125.88Z" fill="url(#paint0_linear_69_3907)" fill-opacity="0.2"/>
</g>
<defs>
<filter id="filter0_di_69_3907" x="0.53833" y="-0.976013" width="459.296" height="199.84" filterUnits="userSpaceOnUse" color-interpolation-filters="sRGB">
<feFlood flood-opacity="0" result="BackgroundImageFix"/>
<feColorMatrix in="SourceAlpha" type="matrix" values="0 0 0 0 0 0 0 0 0 0 0 0 0 0 0 0 0 0 127 0" result="hardAlpha"/>
<feMorphology radius="2" operator="erode" in="SourceAlpha" result="effect1_dropShadow_69_3907"/>
<feOffset dx="2" dy="2"/>
<feGaussianBlur stdDeviation="1.5"/>
<feComposite in2="hardAlpha" operator="out"/>
<feColorMatrix type="matrix" values="0 0 0 0 0 0 0 0 0 0 0 0 0 0 0 0 0 0 0.25 0"/>
<feBlend mode="normal" in2="BackgroundImageFix" result="effect1_dropShadow_69_3907"/>
<feBlend mode="normal" in="SourceGraphic" in2="effect1_dropShadow_69_3907" result="shape"/>
<feColorMatrix in="SourceAlpha" type="matrix" values="0 0 0 0 0 0 0 0 0 0 0 0 0 0 0 0 0 0 127 0" result="hardAlpha"/>
<feOffset dy="-1"/>
<feGaussianBlur stdDeviation="2"/>
<feComposite in2="hardAlpha" operator="arithmetic" k2="-1" k3="1"/>
<feColorMatrix type="matrix" values="0 0 0 0 0 0 0 0 0 0 0 0 0 0 0 0 0 0 0.3 0"/>
<feBlend mode="normal" in2="shape" result="effect2_innerShadow_69_3907"/>
</filter>
<linearGradient id="paint0_linear_69_3907" x1="229" y1="-119" x2="229" y2="223" gradientUnits="userSpaceOnUse">
<stop stop-color="#EFEFEF" stop-opacity="0"/>
<stop offset="1" stop-color="#CECECE"/>
</linearGradient>
</defs>
</svg>
