<svg width="130" height="30" viewBox="0 0 130 30" fill="none" xmlns="http://www.w3.org/2000/svg">
<path d="M0.849479 13.4331C0.270795 13.4331 0 12.9462 0 12.4937C0 12.0753 0.237409 11.6227 0.745613 11.6227C2.51134 11.5543 4.37723 11.482 6.28021 11.3793C7.90869 8.38616 9.91183 3.61689 10.8281 0.623732C10.9653 0.174949 11.3363 0 11.7109 0C12.2525 0 12.8646 0.384128 12.8646 0.973631C12.8646 1.66962 10.2865 7.48098 8.24996 11.2386C12.8646 10.9267 17.6202 10.4399 21.6933 9.81237C20.5396 8.69802 19.3155 7.72439 18.0282 6.85345C17.7908 6.6785 17.6536 6.46932 17.6536 6.26014C17.6536 5.80756 18.095 5.3892 18.6366 5.3892C19.8237 5.3892 26.6492 11.444 26.6492 13.2885C26.6492 13.9161 26.1076 14.4029 25.5957 14.4029C25.2915 14.4029 25.017 14.2279 24.8167 13.8818C24.2751 12.9082 23.6296 11.9688 22.9508 11.1663C15.3759 12.7371 2.47796 13.4331 0.849479 13.4331ZM19.5862 29.0264C17.2789 29.1291 15.0718 29.2013 12.898 29.2013C10.8948 29.2013 8.96219 29.1329 7.05921 29.0264C5.05607 28.8857 3.9358 27.5659 3.86903 25.8583C3.83564 24.9189 3.80225 24.0137 3.80225 23.1085C3.80225 22.2376 3.83564 21.3324 3.86903 20.4995C3.9358 18.9326 4.9893 17.4037 6.99244 17.3314C9.02896 17.2629 11.1694 17.2287 13.3394 17.2287C15.5095 17.2287 17.7167 17.2629 19.7532 17.3314C21.5189 17.3998 22.6058 18.7234 22.7059 20.2181C22.7727 21.089 22.7727 22.0284 22.7727 22.9678C22.7727 23.9072 22.7727 24.8466 22.7059 25.786C22.6429 27.4594 21.4855 28.9199 19.5862 29.0264ZM20.9773 22.7624C20.9773 20.0127 20.8772 19.0048 18.8035 18.8983C16.971 18.8299 15.1052 18.7956 13.2356 18.7956C11.4031 18.7956 9.57055 18.8299 7.73805 18.8983C6.3136 18.9326 5.66814 19.9062 5.63476 20.9521C5.60137 21.5454 5.60137 22.3441 5.60137 23.1466C5.60137 26.3489 5.63475 27.2541 7.77515 27.3567C9.67442 27.4594 11.4068 27.4975 13.2059 27.4975C15.005 27.4975 16.8709 27.4632 18.9074 27.3567C20.1649 27.2883 20.9105 26.6265 20.9439 25.3372C20.9773 24.6412 20.9773 23.7018 20.9773 22.7624Z" fill="#E56F47"/>
<path d="M36.2494 13.2581C35.0623 12.3529 33.738 11.7254 32.6178 11.3793C32.2765 11.2766 32.1429 10.9952 32.1429 10.7518C32.1429 10.2992 32.4842 9.8466 33.0592 9.8466C33.7714 9.8466 36.012 10.786 37.2361 11.6227C37.5774 11.8661 37.7109 12.178 37.7109 12.4594C37.7109 12.9805 37.3029 13.4673 36.8281 13.4673C36.624 13.4673 36.4534 13.3988 36.2494 13.2581ZM33.2298 29.1975C32.7216 29.1975 32.2802 28.7449 32.2802 28.2239C32.2802 28.0489 32.347 27.8398 32.5176 27.6306C34.3167 25.4361 36.012 22.2376 36.9987 19.1379C37.136 18.7538 37.4735 18.5446 37.7777 18.5446C38.2191 18.5446 38.6606 18.8565 38.6606 19.4498C38.6606 20.18 36.6574 25.2612 34.1461 28.6384C33.8753 29.0264 33.534 29.1975 33.2298 29.1975ZM36.5573 5.70867C35.4036 4.24823 34.4169 3.55223 33.5006 2.95892C33.2632 2.8182 33.1594 2.60903 33.1594 2.43788C33.1594 2.01952 33.6342 1.60117 34.109 1.60117C34.9251 1.60117 38.2154 4.07328 38.2154 5.08114C38.2154 5.63641 37.7406 6.089 37.2658 6.089C37.0321 6.089 36.7613 5.95208 36.5573 5.70867ZM39.306 15.3461C38.9647 15.3461 38.6606 15.1369 38.6606 14.7908C38.6606 14.6881 38.6939 14.5816 38.7607 14.4409C39.3728 13.4673 39.9812 11.7254 40.085 10.5426C40.1184 10.2307 40.3892 10.09 40.6637 10.09C41.005 10.09 41.3759 10.2992 41.3759 10.6833C41.3759 11.482 40.5598 14.0606 39.9181 15.0342C39.7808 15.2434 39.5434 15.3461 39.306 15.3461ZM42.3256 8.94523C41.1051 9.08595 39.2022 9.2571 39.1688 9.2571C38.8646 9.2571 38.6939 8.94523 38.6939 8.66379C38.6939 8.14275 38.7607 8.10852 40.5932 8.00203C41.0013 7.54944 41.4093 7.06263 41.8137 6.54158C41.068 5.67064 39.8105 4.4536 39.2689 4.03524C39.1317 3.93256 39.0649 3.79184 39.0649 3.65112C39.0649 3.37348 39.3357 3.09584 39.677 3.09584C39.9478 3.09584 40.2557 3.33925 40.6266 3.65112C41.2387 2.64326 41.847 1.2855 42.1215 0.380325C42.1883 0.136917 42.3923 0.030426 42.6297 0.030426C43.0044 0.030426 43.4125 0.308063 43.4125 0.657961C43.4125 1.07632 42.3256 3.1643 41.4761 4.4498C41.8507 4.83392 42.1883 5.21425 42.4962 5.56415C43.2418 4.4498 43.9207 3.30122 44.2953 2.46831C44.3955 2.25913 44.5995 2.15644 44.8035 2.15644C45.1782 2.15644 45.5862 2.43408 45.5862 2.78398C45.5862 2.95892 44.2953 5.25608 42.1252 7.89934L44.9779 7.6217C44.7738 7.30984 44.5698 6.99417 44.3658 6.75076C44.2656 6.64807 44.2285 6.50735 44.2285 6.40086C44.2285 6.15745 44.4993 5.94828 44.8072 5.94828C45.4193 5.94828 46.9105 8.42038 46.9105 9.08215C46.9105 9.50051 46.5693 9.74391 46.2651 9.74391C46.0277 9.74391 45.8236 9.64123 45.7569 9.32556C45.6901 9.04792 45.5862 8.80451 45.4861 8.5611L43.5868 8.77028L43.6202 15.7987C43.6202 16.217 43.2789 16.4262 42.9413 16.4262C42.5667 16.4262 42.2291 16.217 42.2291 15.7987L42.3256 8.94523ZM41.6467 18.5827C41.2387 18.5827 41.0013 18.2708 41.0013 17.9209C41.0013 17.571 41.2387 17.2249 41.7135 17.2249C46.9402 17.2249 52.3375 17.2249 56.6146 17.2591C59.4339 17.2591 59.6008 18.267 59.6008 19.5905C59.6008 20.6706 59.6008 21.9219 56.5812 21.9219H44.0913C43.2084 21.9219 42.767 21.9904 42.5964 22.3745C42.4257 22.7244 42.2551 23.5231 42.2551 23.5573C42.2551 23.9072 42.6965 23.9757 43.3754 23.9757H57.631C59.7009 23.9757 60.1758 24.9151 60.1758 25.786C60.1758 26.9004 59.4301 27.9082 59.1223 28.2581C58.0688 29.4752 55.32 30 52.063 30C50.2639 30 48.2608 29.8593 46.3615 29.5474C45.9201 29.479 45.7161 29.1633 45.7161 28.8172C45.7161 28.4331 45.9869 28.0527 46.4617 28.0527H46.6323C48.4648 28.4026 50.468 28.5738 52.2671 28.5738C54.6078 28.5738 56.5775 28.2619 57.3936 27.5659C57.5976 27.391 58.4137 26.5923 58.4137 25.7898C58.4137 25.3372 57.9723 25.2345 57.1228 25.2345C52.4377 25.2345 47.1442 25.2688 42.7967 25.2688C40.9976 25.2688 40.4894 24.7135 40.4894 24.0517C40.4894 24.0175 40.66 22.8005 40.9976 21.9637C41.3017 21.127 41.9138 20.6744 43.5757 20.6744H56.2029C57.5939 20.6744 57.798 20.3626 57.798 19.6666C57.798 18.7272 57.4233 18.5865 56.2029 18.5865H41.6467V18.5827ZM45.7903 14.5816C45.4861 14.5816 45.2116 14.4067 45.2116 14.0264C45.1782 13.1212 44.6329 11.3451 44.3287 10.6871C44.2953 10.5844 44.2619 10.5122 44.2619 10.4437C44.2619 10.1661 44.5327 9.99113 44.8035 9.99113C45.7532 9.99113 46.5025 13.3304 46.5025 13.8895C46.5025 14.3382 46.1278 14.5816 45.7903 14.5816ZM47.1479 4.59432C46.7065 4.59432 46.5025 4.31668 46.5025 4.00101C46.5025 3.68534 46.7399 3.37348 47.1479 3.37348H53.5283C53.9697 3.37348 54.1738 3.68534 54.1738 3.96678C54.1738 4.27865 53.9697 4.59432 53.5283 4.59432H47.1479ZM50.3381 15.521C47.8935 15.521 47.2481 15.4184 47.2481 12.9805C47.2481 10.961 47.4855 10.4741 50.1341 10.4741C53.2241 10.4741 53.4615 10.6833 53.4615 12.9462C53.4615 15.1407 53.187 15.521 50.3381 15.521ZM48.0642 2.05375C47.6228 2.05375 47.4187 1.74189 47.4187 1.46045C47.4187 1.14858 47.6228 0.832911 48.0642 0.832911H52.7159C53.124 0.832911 53.328 1.14478 53.328 1.42622C53.328 1.73808 53.124 2.05375 52.7159 2.05375H48.0642ZM48.1977 6.95994C47.7897 6.95994 47.5857 6.6823 47.5857 6.40466C47.5857 6.12703 47.7897 5.84939 48.1977 5.84939H52.5082C52.9162 5.84939 53.1203 6.12703 53.1203 6.40466C53.1203 6.6823 52.9162 6.95994 52.5082 6.95994H48.1977ZM48.1977 9.32556C47.7897 9.32556 47.5857 9.04792 47.5857 8.77028C47.5857 8.45842 47.7897 8.17698 48.1977 8.17698H52.5082C52.9162 8.17698 53.1203 8.45461 53.1203 8.73225C53.1203 9.04412 52.9162 9.32556 52.5082 9.32556H48.1977ZM52.1372 12.3567C52.1372 11.6265 51.5956 11.52 50.3715 11.52C48.5724 11.52 48.539 11.7977 48.539 13.0147C48.539 14.4067 48.7096 14.4409 50.3381 14.4409C51.3582 14.4409 52.1372 14.3725 52.1372 13.6422V12.3567ZM57.6681 8.94523C57.0561 9.01369 54.7153 9.2571 54.4779 9.2571C54.1738 9.2571 54.0031 8.94523 54.0031 8.66379C54.0031 8.38616 54.1404 8.10852 54.4112 8.10852L55.9395 8.00583C56.3475 7.58747 56.7556 7.06643 57.1599 6.54538C56.4143 5.64021 55.1234 4.4574 54.5818 4.03905C54.4446 3.93636 54.3778 3.79564 54.3778 3.65492C54.3778 3.37728 54.6486 3.09964 54.9899 3.09964C55.1271 3.09964 55.2273 3.09964 55.9729 3.65492C56.5849 2.64706 57.1933 1.2893 57.4678 0.384128C57.5346 0.14072 57.7386 0.0342293 57.976 0.0342293C58.3507 0.0342293 58.7921 0.311866 58.7921 0.661765C58.7921 1.2893 57.401 3.58646 56.8224 4.4536L57.8759 5.56795C58.6549 4.4536 59.3003 3.30502 59.675 2.47211C59.7788 2.26293 59.9792 2.16024 60.1832 2.16024C60.5578 2.16024 60.9622 2.43788 60.9622 2.78778C60.9622 3.27459 59.0629 6.02434 57.5012 7.86891C58.5213 7.76623 59.6045 7.69396 60.4206 7.62551C60.2166 7.31364 59.9458 7.0322 59.7417 6.78879C59.6416 6.68611 59.6045 6.57961 59.6045 6.47693C59.6045 6.16506 59.9087 5.95588 60.2499 5.95588C60.7915 5.95588 62.4237 8.39376 62.4237 9.05172C62.4237 9.47008 62.0824 9.74772 61.7783 9.74772C61.5409 9.74772 61.3702 9.607 61.2701 9.32936C61.2033 9.05172 61.0994 8.77409 60.9659 8.53068L58.9294 8.77409L58.9627 15.8025C58.9627 16.2208 58.6215 16.43 58.2839 16.43C57.9092 16.43 57.5717 16.2208 57.5717 15.8025L57.6681 8.94523ZM54.7487 15.4868C54.4446 15.4868 54.1367 15.2776 54.1367 14.9658C54.1367 14.8631 54.1367 14.7566 54.2034 14.6539C54.7116 13.6803 55.1865 11.9384 55.1865 10.7556V10.6491C55.1865 10.2992 55.4906 10.128 55.7985 10.128C56.1398 10.128 56.4774 10.3372 56.4774 10.7213C56.4774 11.7672 55.9358 14.1329 55.4239 15.1065C55.294 15.3841 55.0232 15.4868 54.7487 15.4868ZM61.0623 14.1975C60.9251 13.2581 60.1795 11.4135 59.7714 10.7518C59.7046 10.6491 59.6676 10.5426 59.6676 10.4741C59.6676 10.1965 59.9717 10.0216 60.2796 10.0216C61.2997 10.0216 62.3495 13.7107 62.3495 13.9541C62.3495 14.4067 61.9749 14.7186 61.6039 14.7186C61.3702 14.7224 61.1328 14.5474 61.0623 14.1975Z" fill="#E56F47"/>
<path d="M69.546 20.7771C69.3754 21.2639 68.9673 21.5073 68.563 21.5073C68.1216 21.5073 67.7469 21.2297 67.7469 20.7429C67.7469 20.6022 67.7469 20.4653 67.8137 20.3245C69.0341 16.8446 69.9503 12.912 70.5958 9.08215L67.4724 9.1506H67.439C66.9308 9.1506 66.6934 8.76648 66.6934 8.38615C66.6934 7.96779 66.9642 7.54944 67.439 7.54944L70.8332 7.51521C71.1745 5.21805 71.4453 2.98935 71.5788 0.939398C71.6122 0.384124 72.0203 0.140717 72.4283 0.140717C72.9031 0.140717 73.3779 0.452583 73.3779 0.97743C73.3779 1.08012 73.1071 3.93636 72.5618 7.51901C73.4781 7.51901 74.3943 7.48478 75.2104 7.48478C77.0429 7.48478 78.0297 8.59913 78.0297 10.2003C78.0297 13.125 77.3174 17.0233 75.8225 20.431C76.2639 20.6402 79.4875 22.2756 79.4875 23.5269C79.4875 24.0821 79.0795 24.5728 78.6046 24.5728C78.3672 24.5728 78.1632 24.5043 77.9258 24.2609C77.0763 23.39 76.1267 22.6255 75.0732 21.998C72.2911 27.2541 68.2143 29.342 67.5355 29.342C66.9568 29.342 66.5858 28.821 66.5858 28.3342C66.5858 28.0565 66.7231 27.7789 67.0272 27.6382C70.1507 26.2462 72.2206 23.8806 73.6116 21.2677C72.4246 20.7467 71.1337 20.3283 69.7426 20.1192L69.546 20.7771ZM76.2677 10.4741C76.2677 9.60319 75.8262 9.01369 74.8098 9.01369C74.131 9.01369 73.2815 9.01369 72.3319 9.04792C71.7903 12.2845 71.0409 15.5895 70.1581 18.6549C71.5491 18.8299 72.9736 19.2482 74.3313 19.7693C75.8967 16.1486 76.2677 12.4252 76.2677 10.4741ZM89.9817 16.1143C90.0819 16.9853 90.1524 17.8562 90.1524 18.7956C90.1524 20.5375 89.9483 22.3441 89.5737 24.2229C89.0321 27.0068 87.1959 29.3382 83.7015 29.3382C82.852 29.3382 81.9024 29.1975 80.8489 28.8856C80.3407 28.7449 80.1033 28.3304 80.1033 27.912C80.1033 27.4252 80.4075 26.9726 80.9194 26.9726C80.9862 26.9726 81.09 26.9726 81.1902 27.0068C82.1732 27.3567 83.0561 27.4937 83.8054 27.4937C86.1832 27.4937 87.4036 25.9267 87.845 23.7703C88.2197 21.9942 88.3866 20.2219 88.3866 18.5484C88.3866 17.7117 88.3532 16.8788 88.2494 16.1105L79.4912 16.1448C78.9496 16.1448 78.6751 15.7264 78.6751 15.3081C78.6751 14.8897 78.9459 14.4713 79.4541 14.4713L87.9749 14.5056C87.4333 12.2084 86.3464 10.3296 84.5807 9.35598C84.3433 9.21526 84.2394 9.04411 84.2394 8.83494C84.2394 8.45081 84.6474 7.99822 85.1556 7.99822C85.6972 7.99822 86.3427 8.51927 86.684 8.7969C86.9548 8.58772 90.6235 5.35116 90.6235 4.44599C90.6235 3.92495 89.8779 3.92495 88.6871 3.92495C86.8212 3.92495 83.5606 3.95918 80.912 4.02763H80.8786C80.3704 4.02763 80.0996 3.64351 80.0996 3.22895C80.0996 2.8144 80.3704 2.39224 80.9157 2.39224C82.6814 2.32378 84.3766 2.32378 85.9717 2.32378C87.5668 2.32378 89.0618 2.32378 90.3861 2.35801C91.9478 2.39224 92.66 3.19472 92.66 4.16835C92.66 4.72363 92.66 5.87221 87.7709 9.94548C88.6871 11.1283 89.3659 12.6952 89.7406 14.5056L95.2752 14.4713C95.8168 14.4713 96.0542 14.8897 96.0542 15.27C96.0542 15.6884 95.8168 16.1067 95.2752 16.1067H89.9817V16.1143Z" fill="#E56F47"/>
<path d="M103.488 20.7771C103.317 21.2639 102.909 21.5073 102.505 21.5073C102.064 21.5073 101.689 21.2297 101.689 20.7429C101.689 20.6022 101.689 20.4653 101.756 20.3245C102.976 16.8446 103.892 12.912 104.538 9.08215L101.414 9.1506H101.381C100.873 9.1506 100.635 8.76648 100.635 8.38615C100.635 7.96779 100.906 7.54944 101.381 7.54944L104.775 7.51521C105.117 5.21805 105.387 2.98935 105.521 0.939398C105.554 0.384124 105.962 0.140717 106.37 0.140717C106.845 0.140717 107.32 0.452583 107.32 0.97743C107.32 1.08012 107.049 3.93636 106.504 7.51901C107.42 7.51901 108.336 7.48478 109.153 7.48478C110.985 7.48478 111.972 8.59913 111.972 10.2003C111.972 13.125 111.26 17.0233 109.765 20.431C110.206 20.6402 113.43 22.2756 113.43 23.5269C113.43 24.0821 113.022 24.5728 112.547 24.5728C112.309 24.5728 112.105 24.5043 111.868 24.2609C111.018 23.39 110.069 22.6255 109.015 21.998C106.233 27.2541 102.156 29.342 101.478 29.342C100.899 29.342 100.528 28.821 100.528 28.3342C100.528 28.0565 100.665 27.7789 100.969 27.6382C104.093 26.2462 106.163 23.8806 107.554 21.2677C106.367 20.7467 105.076 20.3283 103.685 20.1192L103.488 20.7771ZM110.21 10.4741C110.21 9.60319 109.768 9.01369 108.752 9.01369C108.073 9.01369 107.224 9.01369 106.274 9.04792C105.732 12.2845 104.983 15.5895 104.1 18.6549C105.491 18.8299 106.916 19.2482 108.273 19.7693C109.839 16.1486 110.21 12.4252 110.21 10.4741ZM123.924 16.1143C124.024 16.9853 124.094 17.8562 124.094 18.7956C124.094 20.5375 123.89 22.3441 123.516 24.2229C122.974 27.0068 121.138 29.3382 117.644 29.3382C116.794 29.3382 115.844 29.1975 114.791 28.8856C114.283 28.7449 114.045 28.3304 114.045 27.912C114.045 27.4252 114.35 26.9726 114.861 26.9726C114.928 26.9726 115.032 26.9726 115.132 27.0068C116.115 27.3567 116.998 27.4937 117.747 27.4937C120.125 27.4937 121.346 25.9267 121.787 23.7703C122.162 21.9942 122.329 20.2219 122.329 18.5484C122.329 17.7117 122.295 16.8788 122.191 16.1105L113.433 16.1448C112.892 16.1448 112.617 15.7264 112.617 15.3081C112.617 14.8897 112.888 14.4713 113.396 14.4713L121.917 14.5056C121.375 12.2084 120.288 10.3296 118.523 9.35598C118.285 9.21526 118.181 9.04411 118.181 8.83494C118.181 8.45081 118.59 7.99822 119.098 7.99822C119.639 7.99822 120.285 8.51927 120.626 8.7969C120.897 8.58772 124.566 5.35116 124.566 4.44599C124.566 3.92495 123.82 3.92495 122.629 3.92495C120.763 3.92495 117.503 3.95918 114.854 4.02763H114.821C114.312 4.02763 114.042 3.64351 114.042 3.22895C114.042 2.8144 114.312 2.39224 114.858 2.39224C116.623 2.32378 118.319 2.32378 119.914 2.32378C121.509 2.32378 123.004 2.32378 124.328 2.35801C125.89 2.39224 126.602 3.19472 126.602 4.16835C126.602 4.72363 126.602 5.87221 121.713 9.94548C122.629 11.1283 123.308 12.6952 123.683 14.5056L129.217 14.4713C129.759 14.4713 129.996 14.8897 129.996 15.27C129.996 15.6884 129.759 16.1067 129.217 16.1067H123.924V16.1143Z" fill="#E56F47"/>
</svg>
